<svg id="download-on-the-app-store-apple-2" xmlns="http://www.w3.org/2000/svg" xmlns:xlink="http://www.w3.org/1999/xlink" width="208.869" height="61.896" viewBox="0 0 208.869 61.896">
  <defs>
    <linearGradient id="linear-gradient" x1="-0.474" y1="0.887" x2="-0.474" y2="1.082" gradientUnits="objectBoundingBox">
      <stop offset="0" stop-color="#1a1a1a" stop-opacity="0.102"/>
      <stop offset="0.123" stop-color="#212121" stop-opacity="0.153"/>
      <stop offset="0.308" stop-color="#353535" stop-opacity="0.227"/>
      <stop offset="0.532" stop-color="#575757" stop-opacity="0.318"/>
      <stop offset="0.783" stop-color="#858585" stop-opacity="0.42"/>
      <stop offset="1" stop-color="#b3b3b3" stop-opacity="0.51"/>
    </linearGradient>
  </defs>
  <path id="Path_1245" data-name="Path 1245" d="M201.549,61.9H7.321A7.318,7.318,0,0,1,0,54.577V7.319A7.318,7.318,0,0,1,7.321,0H201.549a7.318,7.318,0,0,1,7.321,7.319V54.577a7.318,7.318,0,0,1-7.321,7.319Z" fill="#a6a6a6"/>
  <path id="Path_1246" data-name="Path 1246" d="M222.9,69.611a5.906,5.906,0,0,1-5.917,5.916H22.76a5.934,5.934,0,0,1-5.951-5.916V22.353A5.963,5.963,0,0,1,22.76,16.4H216.987a5.941,5.941,0,0,1,5.951,5.949L222.9,69.611Z" transform="translate(-15.405 -15.034)"/>
  <path id="Path_1247" data-name="Path 1247" d="M263.431,136.22a8.942,8.942,0,0,1,4.279-7.52,9.165,9.165,0,0,0-7.254-3.91c-3.042-.334-5.984,1.838-7.555,1.838s-3.978-1.8-6.552-1.738a9.709,9.709,0,0,0-8.123,4.946c-3.51,6.083-.9,15.006,2.474,19.885,1.671,2.406,3.644,5.08,6.218,4.98,2.507-.1,3.443-1.6,6.485-1.6,3.009,0,3.878,1.6,6.519,1.537,2.708-.033,4.413-2.406,6.017-4.846a19.7,19.7,0,0,0,2.741-5.615A8.7,8.7,0,0,1,263.431,136.22Zm-4.948-14.672a8.826,8.826,0,0,0,2.006-6.317,9.088,9.088,0,0,0-5.817,3.008,8.394,8.394,0,0,0-2.073,6.083A7.411,7.411,0,0,0,258.484,121.548Z" transform="translate(-216.797 -105.606)" fill="#fff"/>
  <path id="Path_1248" data-name="Path 1248" d="M1271.464,0H1167.43l40.751,61.9h63.283a7.318,7.318,0,0,0,7.321-7.319V7.319A7.318,7.318,0,0,0,1271.464,0Z" transform="translate(-1069.915)" fill="url(#linear-gradient)"/>
  <path id="Path_1249" data-name="Path 1249" d="M803.808,159.868H800.3l-1.939-6.049h-6.686l-1.839,6.049h-3.41l6.619-20.587h4.112Zm-6.017-8.589-1.738-5.381c-.2-.535-.535-1.838-1.036-3.877h-.067c-.2.869-.535,2.172-.969,3.877l-1.7,5.381Zm23.033.969a8.4,8.4,0,0,1-2.073,5.982,6.044,6.044,0,0,1-4.58,1.972,4.6,4.6,0,0,1-4.246-2.106v7.787H806.65V149.875c0-1.571-.033-3.208-.134-4.879h2.908l.2,2.339h.067a5.863,5.863,0,0,1,9.394-.6A8.444,8.444,0,0,1,820.824,152.248Zm-3.343.134a6.264,6.264,0,0,0-.969-3.576,3.39,3.39,0,0,0-2.875-1.471,3.453,3.453,0,0,0-2.206.8,3.65,3.65,0,0,0-1.3,2.139,5.241,5.241,0,0,0-.167,1v2.473a3.96,3.96,0,0,0,1,2.741,3.339,3.339,0,0,0,2.574,1.1,3.379,3.379,0,0,0,2.908-1.437A6.17,6.17,0,0,0,817.481,152.382Zm20.459-.134a8.4,8.4,0,0,1-2.073,5.982,6.044,6.044,0,0,1-4.58,1.972,4.6,4.6,0,0,1-4.246-2.106v7.787h-3.31V149.875c0-1.571-.033-3.208-.134-4.879h2.908l.2,2.339h.067a5.863,5.863,0,0,1,9.394-.6A8.46,8.46,0,0,1,837.94,152.248Zm-3.376.134a6.263,6.263,0,0,0-.969-3.576,3.39,3.39,0,0,0-2.875-1.471,3.453,3.453,0,0,0-2.206.8,3.649,3.649,0,0,0-1.3,2.139,4.441,4.441,0,0,0-.167,1v2.473a3.96,3.96,0,0,0,1,2.741,3.339,3.339,0,0,0,2.574,1.1,3.379,3.379,0,0,0,2.908-1.437A6.169,6.169,0,0,0,834.563,152.382Zm22.465,1.7a5.469,5.469,0,0,1-1.839,4.278,8.1,8.1,0,0,1-5.616,1.8,10.134,10.134,0,0,1-5.349-1.27l.769-2.741a9.063,9.063,0,0,0,4.78,1.27,4.5,4.5,0,0,0,2.908-.836,2.712,2.712,0,0,0,1.036-2.239,2.874,2.874,0,0,0-.869-2.106,8.048,8.048,0,0,0-2.842-1.6q-5.416-2.005-5.416-5.916a5.152,5.152,0,0,1,1.906-4.144,7.618,7.618,0,0,1,5.048-1.6,10.226,10.226,0,0,1,4.68.969l-.836,2.674a8.1,8.1,0,0,0-3.945-.936,4.083,4.083,0,0,0-2.741.869,2.508,2.508,0,0,0-.836,1.872,2.455,2.455,0,0,0,.936,2.005,10.678,10.678,0,0,0,3.009,1.6,9.885,9.885,0,0,1,3.911,2.507A4.843,4.843,0,0,1,857.028,154.086ZM867.96,147.5h-3.644v7.219c0,1.838.635,2.741,1.939,2.741a4.688,4.688,0,0,0,1.471-.167l.1,2.507a7.646,7.646,0,0,1-2.574.368,3.905,3.905,0,0,1-3.042-1.2,5.872,5.872,0,0,1-1.1-4.011v-7.486h-2.173V145h2.173v-2.707l3.243-.969v3.71h3.644Zm16.381,4.813a8.16,8.16,0,0,1-1.972,5.615,7.014,7.014,0,0,1-5.449,2.273,6.71,6.71,0,0,1-5.215-2.172,7.853,7.853,0,0,1-1.939-5.481,8.053,8.053,0,0,1,2.006-5.648,6.934,6.934,0,0,1,5.382-2.206,6.783,6.783,0,0,1,5.248,2.172A7.713,7.713,0,0,1,884.341,152.315Zm-3.41.067a6.827,6.827,0,0,0-.869-3.509,3.289,3.289,0,0,0-2.975-1.771,3.354,3.354,0,0,0-3.042,1.771,6.676,6.676,0,0,0-.869,3.576,6.826,6.826,0,0,0,.869,3.509,3.4,3.4,0,0,0,5.984-.033,6.726,6.726,0,0,0,.9-3.543Zm14.141-4.478a5.443,5.443,0,0,0-1.036-.1,3.055,3.055,0,0,0-2.674,1.3,5.018,5.018,0,0,0-.836,2.941v7.787h-3.31v-10.16c0-1.571-.033-3.108-.1-4.679h2.875l.134,2.841h.1a4.968,4.968,0,0,1,1.638-2.339,4.138,4.138,0,0,1,2.374-.8,6.516,6.516,0,0,1,.836.067Zm14.776,3.843a7.622,7.622,0,0,1-.134,1.5h-9.9a4.253,4.253,0,0,0,1.438,3.376,4.843,4.843,0,0,0,3.243,1.036,10.988,10.988,0,0,0,4.012-.7l.5,2.273a12.624,12.624,0,0,1-4.981.9,7.108,7.108,0,0,1-5.416-2.039,7.567,7.567,0,0,1-1.972-5.448,8.384,8.384,0,0,1,1.839-5.581,6.244,6.244,0,0,1,5.182-2.373,5.508,5.508,0,0,1,4.847,2.373A7.815,7.815,0,0,1,909.848,151.747Zm-3.142-.869a4.5,4.5,0,0,0-.635-2.54,2.835,2.835,0,0,0-2.641-1.37,3.146,3.146,0,0,0-2.641,1.337,5.008,5.008,0,0,0-.969,2.573h6.887ZM790.737,131.995a16.567,16.567,0,0,1-2.374-.134V121.9a19.838,19.838,0,0,1,2.808-.2c3.778,0,5.516,1.872,5.516,4.913C796.687,130.09,794.615,131.995,790.737,131.995Zm.535-9.024a7.387,7.387,0,0,0-1.3.1v7.553a8.86,8.86,0,0,0,1.1.033c2.474,0,3.878-1.4,3.878-4.044C794.949,124.275,793.679,122.971,791.272,122.971Zm10.831,9.091a3.469,3.469,0,0,1-3.51-3.743,3.547,3.547,0,0,1,3.644-3.843,3.435,3.435,0,0,1,3.51,3.743A3.583,3.583,0,0,1,802.1,132.062Zm.067-6.417c-1.17,0-1.939,1.1-1.939,2.64,0,1.5.769,2.607,1.906,2.607s1.906-1.17,1.906-2.64C804.075,126.748,803.307,125.645,802.17,125.645Zm15.745-1.036-2.273,7.286h-1.5l-.936-3.175c-.234-.769-.435-1.571-.6-2.373h-.034a14.5,14.5,0,0,1-.6,2.373l-1,3.175h-1.5l-2.14-7.286h1.672l.836,3.476c.2.836.368,1.6.5,2.339h.033c.134-.6.3-1.37.6-2.339L812,124.609h1.337l1,3.409q.351,1.253.6,2.406h.033a19.4,19.4,0,0,1,.5-2.406l.9-3.409Zm8.391,7.286h-1.6v-4.178c0-1.3-.5-1.938-1.471-1.938a1.693,1.693,0,0,0-1.638,1.771v4.345h-1.638v-5.214c0-.635,0-1.337-.067-2.072h1.437l.067,1.136h.033a2.655,2.655,0,0,1,2.307-1.27c1.538,0,2.541,1.17,2.541,3.075Zm4.48,0h-1.638V121.233h1.638Zm5.917.167a3.469,3.469,0,0,1-3.51-3.743,3.547,3.547,0,0,1,3.644-3.843,3.435,3.435,0,0,1,3.51,3.743A3.583,3.583,0,0,1,836.7,132.062Zm.067-6.417c-1.17,0-1.939,1.1-1.939,2.64,0,1.5.769,2.607,1.906,2.607s1.906-1.17,1.906-2.64C838.642,126.748,837.906,125.645,836.77,125.645Zm9.962,6.25-.134-.836h-.033a2.5,2.5,0,0,1-2.14,1,2.117,2.117,0,0,1-2.24-2.139c0-1.8,1.571-2.741,4.279-2.741v-.134c0-.969-.5-1.437-1.5-1.437a3.344,3.344,0,0,0-1.906.535l-.334-1.069a4.509,4.509,0,0,1,2.507-.635c1.906,0,2.875,1,2.875,3.008v2.674a11.828,11.828,0,0,0,.1,1.738Zm-.234-3.643c-1.805,0-2.708.434-2.708,1.471a1.028,1.028,0,0,0,1.1,1.136,1.559,1.559,0,0,0,1.6-1.471Zm9.461,3.643-.067-1.17h-.033a2.462,2.462,0,0,1-2.34,1.337c-1.772,0-3.076-1.537-3.076-3.71,0-2.273,1.337-3.877,3.209-3.877a2.231,2.231,0,0,1,2.073,1h.033v-4.244H857.4v8.689c0,.7.033,1.37.067,1.972Zm-.234-4.278a1.763,1.763,0,0,0-1.7-1.9c-1.2,0-1.939,1.069-1.939,2.573,0,1.471.769,2.473,1.906,2.473a1.818,1.818,0,0,0,1.738-1.938Zm11.934,4.445a3.469,3.469,0,0,1-3.51-3.743,3.547,3.547,0,0,1,3.644-3.843,3.435,3.435,0,0,1,3.51,3.743A3.583,3.583,0,0,1,867.659,132.062Zm.067-6.417c-1.17,0-1.906,1.1-1.906,2.64,0,1.5.769,2.607,1.906,2.607s1.905-1.17,1.905-2.64C869.6,126.748,868.863,125.645,867.726,125.645Zm12.3,6.25H878.39v-4.178c0-1.3-.5-1.938-1.471-1.938a1.666,1.666,0,0,0-1.6,1.771v4.345h-1.638v-5.214c0-.635,0-1.337-.067-2.072h1.437l.067,1.136h.033a2.654,2.654,0,0,1,2.307-1.27c1.538,0,2.541,1.17,2.541,3.075v4.345Zm10.9-6.083h-1.772v3.543c0,.9.3,1.337.936,1.337a4.258,4.258,0,0,0,.735-.067l.033,1.237a3.335,3.335,0,0,1-1.27.167c-1.27,0-2.039-.7-2.039-2.54v-3.676h-1.07v-1.2h1.07v-1.337l1.6-.468v1.8h1.772Zm8.592,6.083h-1.6V127.75c0-1.3-.5-1.972-1.471-1.972a1.605,1.605,0,0,0-1.638,1.738v4.412h-1.6V121.233h1.6v4.378h.033a2.442,2.442,0,0,1,2.206-1.2c1.538,0,2.474,1.2,2.474,3.108Zm8.792-3.242h-4.881a2.107,2.107,0,0,0,2.307,2.172,6.1,6.1,0,0,0,1.972-.334l.267,1.136a6.12,6.12,0,0,1-2.44.434,3.4,3.4,0,0,1-3.644-3.676c0-2.239,1.371-3.91,3.443-3.91,1.872,0,3.042,1.37,3.042,3.476A2.745,2.745,0,0,1,908.31,128.653Zm-1.471-1.17c0-1.136-.568-1.938-1.6-1.938a1.914,1.914,0,0,0-1.772,1.938Z" transform="translate(-720.735 -111.107)" fill="#fff"/>
</svg>
