<svg id="google-play-badge" xmlns="http://www.w3.org/2000/svg" xmlns:xlink="http://www.w3.org/1999/xlink" width="208.898" height="61.896" viewBox="0 0 208.898 61.896">
  <defs>
    <linearGradient id="linear-gradient" x1="0.908" y1="1.032" x2="-0.383" y2="0.36" gradientUnits="objectBoundingBox">
      <stop offset="0" stop-color="#00a0ff"/>
      <stop offset="0.007" stop-color="#00a1ff"/>
      <stop offset="0.26" stop-color="#00beff"/>
      <stop offset="0.512" stop-color="#00d2ff"/>
      <stop offset="0.76" stop-color="#00dfff"/>
      <stop offset="1" stop-color="#00e3ff"/>
    </linearGradient>
    <linearGradient id="linear-gradient-2" x1="1.077" y1="0.729" x2="-1.307" y2="0.729" gradientUnits="objectBoundingBox">
      <stop offset="0" stop-color="#ffe000"/>
      <stop offset="0.409" stop-color="#ffbd00"/>
      <stop offset="0.775" stop-color="orange"/>
      <stop offset="1" stop-color="#ff9c00"/>
    </linearGradient>
    <linearGradient id="linear-gradient-3" x1="0.864" y1="-0.023" x2="-0.499" y2="-1.789" gradientUnits="objectBoundingBox">
      <stop offset="0" stop-color="#ff3a44"/>
      <stop offset="1" stop-color="#c31162"/>
    </linearGradient>
    <linearGradient id="linear-gradient-4" x1="-0.186" y1="2.701" x2="0.423" y2="1.909" gradientUnits="objectBoundingBox">
      <stop offset="0" stop-color="#32a071"/>
      <stop offset="0.069" stop-color="#2da771"/>
      <stop offset="0.476" stop-color="#15cf74"/>
      <stop offset="0.801" stop-color="#06e775"/>
      <stop offset="1" stop-color="#00f076"/>
    </linearGradient>
  </defs>
  <path id="Path_1250" data-name="Path 1250" d="M201.161,61.9H7.737A7.662,7.662,0,0,1,0,54.159V7.737A7.662,7.662,0,0,1,7.737,0H201.161A7.662,7.662,0,0,1,208.9,7.737V54.159A7.662,7.662,0,0,1,201.161,61.9Z"/>
  <path id="Path_1251" data-name="Path 1251" d="M201.161,1.238a6.538,6.538,0,0,1,6.5,6.5V54.159a6.538,6.538,0,0,1-6.5,6.5H7.737a6.538,6.538,0,0,1-6.5-6.5V7.737a6.538,6.538,0,0,1,6.5-6.5H201.161m0-1.238H7.737A7.759,7.759,0,0,0,0,7.737V54.159A7.662,7.662,0,0,0,7.737,61.9H201.161a7.662,7.662,0,0,0,7.737-7.737V7.737A7.759,7.759,0,0,0,201.161,0Z" fill="#a6a6a6"/>
  <path id="Path_1252" data-name="Path 1252" d="M50.987,12.173a4.352,4.352,0,0,1-1.118,3.2,5.015,5.015,0,0,1-7.03,0A4.7,4.7,0,0,1,41.4,11.853a4.7,4.7,0,0,1,1.438-3.515A4.7,4.7,0,0,1,46.353,6.9a4.254,4.254,0,0,1,1.917.479A3.479,3.479,0,0,1,49.709,8.5l-.8.8a2.98,2.98,0,0,0-2.557-1.118A3.179,3.179,0,0,0,43.8,9.3a3.292,3.292,0,0,0-1.118,2.716A3.292,3.292,0,0,0,43.8,14.729a4.114,4.114,0,0,0,2.557,1.118,3.5,3.5,0,0,0,2.716-1.118,2.646,2.646,0,0,0,.8-1.917H46.353V11.534h4.634v.639Zm7.35-3.995H54.023v3.036h3.995v1.118H54.023v3.036h4.314v1.278H52.745V7.06h5.592Zm5.273,8.469H62.332V8.178H59.615V7.06h6.711V8.178H63.61Zm7.35,0V7.06h1.278v9.587Zm6.711,0H76.393V8.178H73.676V7.06h6.551V8.178H77.511v8.469ZM92.85,15.369a5.015,5.015,0,0,1-7.03,0,4.7,4.7,0,0,1-1.438-3.515A4.7,4.7,0,0,1,85.82,8.338a5.015,5.015,0,0,1,7.03,0,4.7,4.7,0,0,1,1.438,3.515A4.7,4.7,0,0,1,92.85,15.369Zm-6.072-.8a3.771,3.771,0,0,0,2.557,1.118,3.179,3.179,0,0,0,2.557-1.118,3.855,3.855,0,0,0,1.118-2.716,3.292,3.292,0,0,0-1.118-2.716,3.771,3.771,0,0,0-2.557-1.118,3.179,3.179,0,0,0-2.557,1.118,3.855,3.855,0,0,0-1.118,2.716A3.292,3.292,0,0,0,86.779,14.57Zm9.267,2.077V7.06h1.438l4.634,7.51V7.06H103.4v9.587h-1.278L97.165,8.817v7.829H96.046Z" transform="translate(21.82 3.713)" fill="#fff" stroke="#fff" stroke-miterlimit="10" stroke-width="0.2"/>
  <path id="Path_1253" data-name="Path 1253" d="M84.242,24.61a6.722,6.722,0,0,0-6.871,6.871,6.82,6.82,0,0,0,6.871,6.871,6.722,6.722,0,0,0,6.871-6.871A6.629,6.629,0,0,0,84.242,24.61Zm0,10.865a3.966,3.966,0,0,1-3.835-4.154,3.966,3.966,0,0,1,3.835-4.154,3.871,3.871,0,0,1,3.835,4.154A3.966,3.966,0,0,1,84.242,35.475ZM69.382,24.61a6.722,6.722,0,0,0-6.871,6.871,6.82,6.82,0,0,0,6.871,6.871,6.722,6.722,0,0,0,6.871-6.871A6.629,6.629,0,0,0,69.382,24.61Zm0,10.865a3.966,3.966,0,0,1-3.835-4.154,3.966,3.966,0,0,1,3.835-4.154,3.871,3.871,0,0,1,3.835,4.154A3.966,3.966,0,0,1,69.382,35.475ZM51.646,26.687v2.876h6.871a6.042,6.042,0,0,1-1.6,3.675,7.072,7.072,0,0,1-5.273,2.077,7.439,7.439,0,0,1-7.51-7.67,7.537,7.537,0,0,1,7.51-7.67,7.923,7.923,0,0,1,5.273,2.077L59,19.976a10.239,10.239,0,0,0-7.19-2.876A10.779,10.779,0,0,0,41.1,27.646,10.779,10.779,0,0,0,51.806,38.191a9.2,9.2,0,0,0,7.35-3.036,9.619,9.619,0,0,0,2.557-6.711,5.991,5.991,0,0,0-.16-1.758H51.646Zm72.542,2.237a6.208,6.208,0,0,0-5.752-4.314c-3.515,0-6.391,2.716-6.391,6.871a6.687,6.687,0,0,0,6.711,6.871,6.555,6.555,0,0,0,5.592-3.036l-2.237-1.6a3.9,3.9,0,0,1-3.355,1.917,3.467,3.467,0,0,1-3.355-2.077l9.108-3.835-.32-.8Zm-9.267,2.237a3.882,3.882,0,0,1,3.515-3.995,2.826,2.826,0,0,1,2.557,1.438l-6.072,2.557Zm-7.51,6.551h3.036V17.739H107.41Zm-4.794-11.664a5.261,5.261,0,0,0-3.675-1.6,6.866,6.866,0,0,0-6.551,6.871,6.616,6.616,0,0,0,6.551,6.711,4.588,4.588,0,0,0,3.515-1.6h.16v.959c0,2.557-1.438,3.995-3.675,3.995a3.55,3.55,0,0,1-3.355-2.4L93.03,40.109A6.592,6.592,0,0,0,99.1,44.1c3.515,0,6.391-2.077,6.391-7.03V24.929h-2.876v1.118ZM99.1,35.475a3.966,3.966,0,0,1-3.835-4.154A3.966,3.966,0,0,1,99.1,27.166c2.077,0,3.675,1.758,3.675,4.154S101.179,35.475,99.1,35.475Zm38.987-17.736H130.9V37.712h3.036V30.2h4.154a6.239,6.239,0,1,0,0-12.463Zm.16,9.587h-4.314V20.455h4.314a3.51,3.51,0,0,1,3.515,3.355,3.657,3.657,0,0,1-3.515,3.515Zm18.375-2.876c-2.237,0-4.474.959-5.273,3.036l2.716,1.118a2.822,2.822,0,0,1,2.716-1.438,3,3,0,0,1,3.2,2.557v.16a6.338,6.338,0,0,0-3.036-.8c-2.876,0-5.752,1.6-5.752,4.474a4.681,4.681,0,0,0,4.953,4.474,4.5,4.5,0,0,0,3.835-1.917h.16v1.6h2.876v-7.67A6.047,6.047,0,0,0,156.624,24.45Zm-.32,11.025c-.959,0-2.4-.479-2.4-1.758,0-1.6,1.758-2.077,3.2-2.077a6.179,6.179,0,0,1,2.716.639A3.721,3.721,0,0,1,156.3,35.475Zm16.777-10.546-3.355,8.628h-.16l-3.515-8.628h-3.2l5.273,12.144-3.036,6.711h3.036l8.149-18.854ZM146.238,37.712h3.036V17.739h-3.036Z" transform="translate(17.761 8.205)" fill="#fff"/>
  <g id="Group_423" data-name="Group 423" transform="translate(15.978 10.409)">
    <path id="Path_1254" data-name="Path 1254" d="M10.639,7.5A3.124,3.124,0,0,0,10,9.737V45.049a3.161,3.161,0,0,0,.8,2.237l.16.16L30.772,27.633v-.32Z" transform="translate(-10 -6.936)" fill="url(#linear-gradient)"/>
    <path id="Path_1255" data-name="Path 1255" d="M29.451,29.382,22.9,22.83v-.479L29.451,15.8l.16.16,7.829,4.474c2.237,1.278,2.237,3.355,0,4.634Z" transform="translate(-2.288 -1.974)" fill="url(#linear-gradient-2)"/>
    <path id="Path_1256" data-name="Path 1256" d="M37.084,26.711,30.373,20,10.4,39.973c.8.8,1.917.8,3.355.16L37.084,26.711" transform="translate(-9.761 0.537)" fill="url(#linear-gradient-3)"/>
    <path id="Path_1257" data-name="Path 1257" d="M37.084,20.959,13.755,7.7c-1.438-.8-2.557-.639-3.355.16L30.373,27.67Z" transform="translate(-9.761 -7.133)" fill="url(#linear-gradient-4)"/>
    <path id="Path_1258" data-name="Path 1258" d="M36.924,24.1,13.755,37.2a2.613,2.613,0,0,1-3.2,0l-.16.16.16.16a2.613,2.613,0,0,0,3.2,0Z" transform="translate(-9.761 2.988)" opacity="0.2"/>
    <path id="Path_1259" data-name="Path 1259" d="M10.639,39.653A3.124,3.124,0,0,1,10,37.416v.16a3.161,3.161,0,0,0,.8,2.237v-.16h-.16ZM45.152,22.077l-7.989,4.474.16.16,7.829-4.474A2.656,2.656,0,0,0,46.75,20C46.75,20.8,46.111,21.438,45.152,22.077Z" transform="translate(-10 0.537)" opacity="0.12"/>
    <path id="Path_1260" data-name="Path 1260" d="M13.995,7.871,45.152,25.607c.959.639,1.6,1.278,1.6,2.077a2.656,2.656,0,0,0-1.6-2.237L13.995,7.711C11.758,6.433,10,7.391,10,9.948v.16C10,7.711,11.758,6.592,13.995,7.871Z" transform="translate(-10 -7.147)" fill="#fff" opacity="0.25"/>
  </g>
</svg>
